HIERARCHY
ROOT Hips
{
    OFFSET 0.000 95.729 0.000
    CHANNELS 6 Xposition Yposition Zposition Yrotation Xrotation Zrotation
    JOINT RightUpLeg
    {
        OFFSET -9.625 -1.639 0.000
        CHANNELS 3 Yrotation Xrotation Zrotation
        JOINT RightLeg
        {
            OFFSET 0.000 -41.481 0.000
            CHANNELS 3 Yrotation Xrotation Zrotation
            JOINT RightFoot
            {
                OFFSET 0.000 -43.120 0.000
                CHANNELS 3 Yrotation Xrotation Zrotation
                End Site
                {
                    OFFSET 0.000 -7.850 17.850
                }
            }
        }
    }
    JOINT LeftUpLeg
    {
        OFFSET 9.625 -1.639 0.000
        CHANNELS 3 Yrotation Xrotation Zrotation
        JOINT LeftLeg
        {
            OFFSET 0.000 -43.120 0.000
            CHANNELS 3 Yrotation Xrotation Zrotation
            JOINT LeftFoot
            {
                OFFSET 0.000 -43.120 0.000
                CHANNELS 3 Yrotation Xrotation Zrotation
                End Site
                {
                    OFFSET 0.000 -7.850 17.850
                }
            }
        }
    }
    JOINT Spine
    {
        OFFSET 0.000 16.395 0.000
        CHANNELS 3 Yrotation Xrotation Zrotation
        JOINT Spine1
        {
            OFFSET 0.000 10.023 0.000
            CHANNELS 3 Yrotation Xrotation Zrotation
            JOINT Spine2
            {
                OFFSET 0.000 10.437 0.000
                CHANNELS 3 Yrotation Xrotation Zrotation
                JOINT Spine3
                {
                    OFFSET 0.000 10.023 0.000
                    CHANNELS 3 Yrotation Xrotation Zrotation
                    JOINT Neck
                    {
                        OFFSET 0.000 10.713 0.000
                        CHANNELS 3 Yrotation Xrotation Zrotation
                        JOINT Head
                        {
                            OFFSET 0.000 9.720 0.000
                            CHANNELS 3 Yrotation Xrotation Zrotation
                            End Site
                            {
                                OFFSET 0.000 16.450 0.000
                            }
                        }
                    }
                    JOINT RightShoulder
                    {
                        OFFSET -3.275 7.142 0.000
                        CHANNELS 3 Yrotation Xrotation Zrotation
                        JOINT RightArm
                        {
                            OFFSET -13.100 0.000 0.000
                            CHANNELS 3 Yrotation Xrotation Zrotation
                            JOINT RightForeArm
                            {
                                OFFSET -27.250 0.000 0.000
                                CHANNELS 3 Yrotation Xrotation Zrotation
                                JOINT RightHand
                                {
                                    OFFSET -26.750 0.000 0.000
                                    CHANNELS 3 Yrotation Xrotation Zrotation
                                    JOINT RightHandThumb1
                                    {
                                        OFFSET -2.560 0.196 3.210
                                        CHANNELS 3 Yrotation Xrotation Zrotation
                                        JOINT RightHandThumb2
                                        {
                                            OFFSET -3.788 0.000 0.000
                                            CHANNELS 3 Yrotation Xrotation Zrotation
                                            JOINT RightHandThumb3
                                            {
                                                OFFSET -2.631 0.000 0.000
                                                CHANNELS 3 Yrotation Xrotation Zrotation
                                                End Site
                                                {
                                                    OFFSET -2.256 0.000 0.000
                                                }
                                            }
                                        }
                                    }
                                    JOINT RightInHandIndex
                                    {
                                        OFFSET -3.316 0.523 2.035
                                        CHANNELS 3 Yrotation Xrotation Zrotation
                                        JOINT RightHandIndex1
                                        {
                                            OFFSET -5.366 -0.094 1.028
                                            CHANNELS 3 Yrotation Xrotation Zrotation
                                            JOINT RightHandIndex2
                                            {
                                                OFFSET -3.723 0.000 0.000
                                                CHANNELS 3 Yrotation Xrotation Zrotation
                                                JOINT RightHandIndex3
                                                {
                                                    OFFSET -2.111 0.000 0.000
                                                    CHANNELS 3 Yrotation Xrotation Zrotation
                                                    End Site
                                                    {
                                                        OFFSET -1.857 0.000 0.000
                                                    }
                                                }
                                            }
                                        }
                                    }
                                    JOINT RightInHandMiddle
                                    {
                                        OFFSET -3.479 0.532 0.778
                                        CHANNELS 3 Yrotation Xrotation Zrotation
                                        JOINT RightHandMiddle1
                                        {
                                            OFFSET -5.322 -0.086 0.323
                                            CHANNELS 3 Yrotation Xrotation Zrotation
                                            JOINT RightHandMiddle2
                                            {
                                                OFFSET -4.062 0.000 0.000
                                                CHANNELS 3 Yrotation Xrotation Zrotation
                                                JOINT RightHandMiddle3
                                                {
                                                    OFFSET -2.547 0.000 0.000
                                                    CHANNELS 3 Yrotation Xrotation Zrotation
                                                    End Site
                                                    {
                                                        OFFSET -2.031 0.000 0.000
                                                    }
                                                }
                                            }
                                        }
                                    }
                                    JOINT RightInHandRing
                                    {
                                        OFFSET -3.461 0.553 -0.133
                                        CHANNELS 3 Yrotation Xrotation Zrotation
                                        JOINT RightHandRing1
                                        {
                                            OFFSET -4.767 -0.023 -0.493
                                            CHANNELS 3 Yrotation Xrotation Zrotation
                                            JOINT RightHandRing2
                                            {
                                                OFFSET -3.541 0.000 0.000
                                                CHANNELS 3 Yrotation Xrotation Zrotation
                                                JOINT RightHandRing3
                                                {
                                                    OFFSET -2.456 0.000 0.000
                                                    CHANNELS 3 Yrotation Xrotation Zrotation
                                                    End Site
                                                    {
                                                        OFFSET -1.910 0.000 0.000
                                                    }
                                                }
                                            }
                                        }
                                    }
                                    JOINT RightInHandPinky
                                    {
                                        OFFSET -3.251 0.483 -1.236
                                        CHANNELS 3 Yrotation Xrotation Zrotation
                                        JOINT RightHandPinky1
                                        {
                                            OFFSET -4.259 -0.023 -1.122
                                            CHANNELS 3 Yrotation Xrotation Zrotation
                                            JOINT RightHandPinky2
                                            {
                                                OFFSET -2.835 0.000 0.000
                                                CHANNELS 3 Yrotation Xrotation Zrotation
                                                JOINT RightHandPinky3
                                                {
                                                    OFFSET -1.792 0.000 0.000
                                                    CHANNELS 3 Yrotation Xrotation Zrotation
                                                    End Site
                                                    {
                                                        OFFSET -1.692 0.000 0.000
                                                    }
                                                }
                                            }
                                        }
                                    }
                                }
                            }
                        }
                    }
                    JOINT LeftShoulder
                    {
                        OFFSET 3.275 7.142 0.000
                        CHANNELS 3 Yrotation Xrotation Zrotation
                        JOINT LeftArm
                        {
                            OFFSET 13.100 0.000 0.000
                            CHANNELS 3 Yrotation Xrotation Zrotation
                            JOINT LeftForeArm
                            {
                                OFFSET 27.250 0.000 0.000
                                CHANNELS 3 Yrotation Xrotation Zrotation
                                JOINT LeftHand
                                {
                                    OFFSET 26.750 0.000 0.000
                                    CHANNELS 3 Yrotation Xrotation Zrotation
                                    JOINT LeftHandThumb1
                                    {
                                        OFFSET 2.560 0.196 3.210
                                        CHANNELS 3 Yrotation Xrotation Zrotation
                                        JOINT LeftHandThumb2
                                        {
                                            OFFSET 3.788 0.000 0.000
                                            CHANNELS 3 Yrotation Xrotation Zrotation
                                            JOINT LeftHandThumb3
                                            {
                                                OFFSET 2.631 0.000 0.000
                                                CHANNELS 3 Yrotation Xrotation Zrotation
                                                End Site
                                                {
                                                    OFFSET 2.256 0.000 0.000
                                                }
                                            }
                                        }
                                    }
                                    JOINT LeftInHandIndex
                                    {
                                        OFFSET 3.316 0.523 2.035
                                        CHANNELS 3 Yrotation Xrotation Zrotation
                                        JOINT LeftHandIndex1
                                        {
                                            OFFSET 5.366 -0.094 1.028
                                            CHANNELS 3 Yrotation Xrotation Zrotation
                                            JOINT LeftHandIndex2
                                            {
                                                OFFSET 3.723 0.000 0.000
                                                CHANNELS 3 Yrotation Xrotation Zrotation
                                                JOINT LeftHandIndex3
                                                {
                                                    OFFSET 2.111 0.000 0.000
                                                    CHANNELS 3 Yrotation Xrotation Zrotation
                                                    End Site
                                                    {
                                                        OFFSET 1.857 0.000 0.000
                                                    }
                                                }
                                            }
                                        }
                                    }
                                    JOINT LeftInHandMiddle
                                    {
                                        OFFSET 3.479 0.532 0.778
                                        CHANNELS 3 Yrotation Xrotation Zrotation
                                        JOINT LeftHandMiddle1
                                        {
                                            OFFSET 5.322 -0.086 0.323
                                            CHANNELS 3 Yrotation Xrotation Zrotation
                                            JOINT LeftHandMiddle2
                                            {
                                                OFFSET 4.062 0.000 0.000
                                                CHANNELS 3 Yrotation Xrotation Zrotation
                                                JOINT LeftHandMiddle3
                                                {
                                                    OFFSET 2.547 0.000 0.000
                                                    CHANNELS 3 Yrotation Xrotation Zrotation
                                                    End Site
                                                    {
                                                        OFFSET 2.031 0.000 0.000
                                                    }
                                                }
                                            }
                                        }
                                    }
                                    JOINT LeftInHandRing
                                    {
                                        OFFSET 3.461 0.553 -0.133
                                        CHANNELS 3 Yrotation Xrotation Zrotation
                                        JOINT LeftHandRing1
                                        {
                                            OFFSET 4.767 -0.023 -0.493
                                            CHANNELS 3 Yrotation Xrotation Zrotation
                                            JOINT LeftHandRing2
                                            {
                                                OFFSET 3.541 0.000 0.000
                                                CHANNELS 3 Yrotation Xrotation Zrotation
                                                JOINT LeftHandRing3
                                                {
                                                    OFFSET 2.456 0.000 0.000
                                                    CHANNELS 3 Yrotation Xrotation Zrotation
                                                    End Site
                                                    {
                                                        OFFSET 1.910 0.000 0.000
                                                    }
                                                }
                                            }
                                        }
                                    }
                                    JOINT LeftInHandPinky
                                    {
                                        OFFSET 3.251 0.483 -1.236
                                        CHANNELS 3 Yrotation Xrotation Zrotation
                                        JOINT LeftHandPinky1
                                        {
                                            OFFSET 4.259 -0.023 -1.122
                                            CHANNELS 3 Yrotation Xrotation Zrotation
                                            JOINT LeftHandPinky2
                                            {
                                                OFFSET 2.835 0.000 0.000
                                                CHANNELS 3 Yrotation Xrotation Zrotation
                                                JOINT LeftHandPinky3
                                                {
                                                    OFFSET 1.792 0.000 0.000
                                                    CHANNELS 3 Yrotation Xrotation Zrotation
                                                    End Site
                                                    {
                                                        OFFSET 1.692 0.000 0.000
                                                    }
                                                }
                                            }
                                        }
                                    }
                                }
                            }
                        }
                    }
                }
            }
        }
    }
}
MOTION
Frames: 5
Frame Time: 0.010000
50.43 89.72 107.42 -154.09 25.1 -3.77 4.38 -55.53 0.02 -0.0 44.54 0.0 -3.37 -21.88 8.35 23.11 -48.13 -8.0 0.0 47.65 0.0 -0.14 -6.76 -1.05 3.39 3.98 0.38 0.86 1.01 0.07 1.44 1.68 0.13 0.31 -0.93 -0.26 0.31 -0.94 -0.26 7.05 -16.86 -5.76 -6.42 -12.91 -8.61 -17.87 -61.71 97.78 4.96 19.85 -7.15 14.49 10.98 -42.25 21.86 -0.0 30.0 -10.0 -0.0 0.0 -10.0 -0.0 0.0 0.0 -0.0 0.0 2.55 -0.0 20.0 0.0 -0.0 24.0 0.0 -0.0 20.0 0.0 -0.0 0.0 0.0 -0.0 20.0 0.0 -0.0 24.0 0.0 -0.0 20.0 0.0 -0.0 0.0 -3.0 -0.0 20.0 0.0 -0.0 24.0 0.0 -0.0 20.0 0.0 -0.0 0.0 -8.83 -0.0 20.0 0.0 -0.0 24.0 0.0 -0.0 20.0 -3.28 1.3 -15.1 -22.05 -14.99 -44.73 -25.56 64.54 -4.91 10.66 -13.41 31.77 -21.86 -0.0 -30.0 10.0 -0.0 0.0 10.0 -0.0 0.0 0.0 -0.0 0.0 -2.55 -0.0 -20.0 0.0 -0.0 -24.0 0.0 -0.0 -20.0 0.0 -0.0 0.0 0.0 -0.0 -20.0 0.0 -0.0 -24.0 0.0 -0.0 -20.0 0.0 -0.0 0.0 3.0 -0.0 -20.0 0.0 -0.0 -24.0 0.0 -0.0 -20.0 0.0 -0.0 0.0 8.83 -0.0 -20.0 0.0 -0.0 -24.0 0.0 -0.0 -20.0
52.22 87.37 108.15 -153.55 27.85 -3.75 3.0 -62.89 1.29 0.0 50.93 0.0 -4.16 -22.88 8.93 22.96 -51.52 -8.83 -0.0 49.56 -0.0 -0.59 -6.03 -1.28 3.01 2.36 0.4 0.76 0.59 0.09 1.27 0.99 0.15 0.32 -0.93 -0.27 0.33 -0.93 -0.27 7.39 -16.75 -5.98 -4.59 -8.44 -10.1 -14.34 -62.35 96.66 3.7 19.45 -6.2 14.37 11.86 -43.62 21.86 -0.0 30.0 -10.0 -0.0 0.0 -10.0 -0.0 0.0 0.0 -0.0 0.0 2.55 -0.0 20.0 0.0 -0.0 24.0 0.0 -0.0 20.0 0.0 -0.0 0.0 0.0 -0.0 20.0 0.0 -0.0 24.0 0.0 -0.0 20.0 0.0 -0.0 0.0 -3.0 -0.0 20.0 0.0 -0.0 24.0 0.0 -0.0 20.0 0.0 -0.0 0.0 -8.83 -0.0 20.0 0.0 -0.0 24.0 0.0 -0.0 20.0 -4.19 4.77 -15.72 -22.68 -12.35 -43.84 -23.49 63.18 0.05 9.43 -13.83 31.36 -21.86 -0.0 -30.0 10.0 -0.0 0.0 10.0 -0.0 0.0 0.0 -0.0 0.0 -2.55 -0.0 -20.0 0.0 -0.0 -24.0 0.0 -0.0 -20.0 0.0 -0.0 0.0 0.0 -0.0 -20.0 0.0 -0.0 -24.0 0.0 -0.0 -20.0 0.0 -0.0 0.0 3.0 -0.0 -20.0 0.0 -0.0 -24.0 0.0 -0.0 -20.0 0.0 -0.0 0.0 8.83 -0.0 -20.0 0.0 -0.0 -24.0 0.0 -0.0 -20.0
53.67 84.69 108.55 -152.6 30.22 -3.17 -0.58 -69.92 3.8 0.0 57.96 0.0 -3.92 -23.86 9.27 23.1 -56.52 -10.19 -0.0 54.42 0.0 0.88 -5.53 -1.29 2.44 0.98 0.24 0.61 0.25 0.06 1.02 0.41 0.1 0.38 -0.91 -0.29 0.39 -0.91 -0.29 8.49 -16.22 -6.46 -1.55 -4.17 -11.93 -11.6 -63.31 95.17 2.47 19.1 -4.8 14.25 12.91 -44.96 21.86 -0.0 30.0 -10.0 -0.0 0.0 -10.0 -0.0 0.0 0.0 -0.0 0.0 2.55 -0.0 20.0 0.0 -0.0 24.0 0.0 -0.0 20.0 0.0 -0.0 0.0 0.0 -0.0 20.0 0.0 -0.0 24.0 0.0 -0.0 20.0 0.0 -0.0 0.0 -3.0 -0.0 20.0 0.0 -0.0 24.0 0.0 -0.0 20.0 0.0 -0.0 0.0 -8.83 -0.0 20.0 0.0 -0.0 24.0 0.0 -0.0 20.0 -4.94 7.92 -16.54 -23.76 -13.06 -41.98 -22.2 63.38 1.28 8.42 -14.24 31.13 -21.86 -0.0 -30.0 10.0 -0.0 0.0 10.0 -0.0 0.0 0.0 -0.0 0.0 -2.55 -0.0 -20.0 0.0 -0.0 -24.0 0.0 -0.0 -20.0 0.0 -0.0 0.0 0.0 -0.0 -20.0 0.0 -0.0 -24.0 0.0 -0.0 -20.0 0.0 -0.0 0.0 3.0 -0.0 -20.0 0.0 -0.0 -24.0 0.0 -0.0 -20.0 0.0 -0.0 0.0 8.83 -0.0 -20.0 0.0 -0.0 -24.0 0.0 -0.0 -20.0
55.64 81.75 108.94 -151.93 32.34 -2.69 -10.82 -76.63 13.2 0.0 64.94 0.0 -2.37 -26.0 7.38 24.57 -63.26 -12.55 0.0 61.26 -0.0 1.86 -6.11 -1.59 3.45 6.71 -0.42 0.88 1.7 -0.14 1.47 2.85 -0.22 0.24 -1.4 -0.32 0.24 -1.42 -0.32 7.4 -26.13 -7.82 -0.62 -11.42 -12.27 -8.15 -65.02 92.54 0.79 18.62 -3.17 14.05 13.75 -46.27 21.86 -0.0 30.0 -10.0 -0.0 0.0 -10.0 -0.0 0.0 0.0 -0.0 0.0 2.55 -0.0 20.0 0.0 -0.0 24.0 0.0 -0.0 20.0 0.0 -0.0 0.0 0.0 -0.0 20.0 0.0 -0.0 24.0 0.0 -0.0 20.0 0.0 -0.0 0.0 -3.0 -0.0 20.0 0.0 -0.0 24.0 0.0 -0.0 20.0 0.0 -0.0 0.0 -8.83 -0.0 20.0 0.0 -0.0 24.0 0.0 -0.0 20.0 -7.12 -0.49 -15.66 -25.58 -13.86 -39.72 -21.06 63.6 2.1 7.63 -14.29 30.79 -21.86 -0.0 -30.0 10.0 -0.0 0.0 10.0 -0.0 0.0 0.0 -0.0 0.0 -2.55 -0.0 -20.0 0.0 -0.0 -24.0 0.0 -0.0 -20.0 0.0 -0.0 0.0 0.0 -0.0 -20.0 0.0 -0.0 -24.0 0.0 -0.0 -20.0 0.0 -0.0 0.0 3.0 -0.0 -20.0 0.0 -0.0 -24.0 0.0 -0.0 -20.0 0.0 -0.0 0.0 8.83 -0.0 -20.0 0.0 -0.0 -24.0 0.0 -0.0 -20.0
57.58 76.36 108.68 -151.02 33.41 -2.23 -42.87 -83.83 44.68 0.0 75.84 0.0 -3.3 -24.26 9.64 27.88 -69.15 -16.21 0.0 69.63 0.0 3.04 -4.78 -0.67 3.42 6.72 -0.55 0.87 1.71 -0.17 1.45 2.86 -0.27 0.24 -1.42 -0.33 0.24 -1.44 -0.34 7.55 -26.51 -8.15 1.73 -8.55 -13.16 -7.69 -67.95 93.54 -1.73 18.94 -2.68 13.62 13.62 -49.72 21.86 -0.0 30.0 -10.0 -0.0 0.0 -10.0 -0.0 0.0 0.0 -0.0 0.0 2.55 -0.0 20.0 0.0 -0.0 24.0 0.0 -0.0 20.0 0.0 -0.0 0.0 0.0 -0.0 20.0 0.0 -0.0 24.0 0.0 -0.0 20.0 0.0 -0.0 0.0 -3.0 -0.0 20.0 0.0 -0.0 24.0 0.0 -0.0 20.0 0.0 -0.0 0.0 -8.83 -0.0 20.0 0.0 -0.0 24.0 0.0 -0.0 20.0 -7.64 -0.45 -15.77 -26.47 -14.46 -38.63 -20.59 64.16 2.59 7.31 -14.06 30.99 -21.86 -0.0 -30.0 10.0 -0.0 0.0 10.0 -0.0 0.0 0.0 -0.0 0.0 -2.55 -0.0 -20.0 0.0 -0.0 -24.0 0.0 -0.0 -20.0 0.0 -0.0 0.0 0.0 -0.0 -20.0 0.0 -0.0 -24.0 0.0 -0.0 -20.0 0.0 -0.0 0.0 3.0 -0.0 -20.0 0.0 -0.0 -24.0 0.0 -0.0 -20.0 0.0 -0.0 0.0 8.83 -0.0 -20.0 0.0 -0.0 -24.0 0.0 -0.0 -20.0
